<?xml version="1.0" encoding="UTF-8" standalone="no"?>
<!DOCTYPE svg PUBLIC "-//W3C//DTD SVG 1.1//EN" "http://www.w3.org/Graphics/SVG/1.1/DTD/svg11.dtd">
<svg width="100%" height="100%" viewBox="0 0 1450 2044" version="1.1" xmlns="http://www.w3.org/2000/svg" xmlns:xlink="http://www.w3.org/1999/xlink" xml:space="preserve" xmlns:serif="http://www.serif.com/" style="fill-rule:evenodd;clip-rule:evenodd;stroke-linejoin:round;stroke-miterlimit:2;">
    <g transform="matrix(1,0,0,1,-1801.51,-56.8699)">
        <g id="Ebene1">
        </g>
        <g id="Vector">
        </g>
        <g id="ear" transform="matrix(1,0,0,1,791.599,-688.568)">
            <g id="expand">
                <path id="ear1" serif:id="ear" d="M2322.87,1264.22C2323.05,1264.79 2323.22,1265.36 2323.39,1265.93C2323.39,1265.93 2389.14,1467.12 2386.2,1538.76C2383.98,1592.84 2343.55,1600.62 2344.98,1639.85C2346.94,1693.83 2458.62,1872.46 2459.81,1929.38C2460.79,1976.48 2434.29,2024.57 2338.11,2024.57C2338.11,2024.57 2342.03,2129.1 2297.87,2132.04C2297.87,2132.04 2329.11,2171.2 2273.33,2228.22C2270.7,2230.91 2280.89,2267.94 2275.7,2315.75C2273.29,2337.98 2241.06,2426.96 2132.99,2426.96C2082.16,2426.96 1959.28,2388.69 1959.28,2388.69C1959.28,2388.69 1855.18,2559.99 1804.73,2789.39C1570.33,2630.27 1336.71,2501.11 1062.25,2432.41C1139.83,2296.86 1177.81,2174 1195.07,2085.96C1199.49,1983.82 1131.83,1907.15 1111.04,1791.35C1096.99,1713.1 1066.51,1666.89 1048.84,1597.21C1029.62,1557.44 982.069,1409.08 1032.06,1284.34C999.645,1125.89 1111.93,1024.39 1240.63,999.632C1279.3,902.275 1341.33,863.999 1416.31,848.492C1401.79,902.471 1406.3,942.121 1428.09,975.097C1412.19,814.927 1542.08,744.786 1676.39,745.442C1644,767.426 1634.38,782.736 1621.43,814.142C1752.38,807.448 1764.91,838.678 1853.05,838.678C1887.92,838.678 1962.91,821.918 1990.82,814.505C1966.87,784.279 1949.19,775.557 1883.52,759.105C2254.03,700.211 2397.74,919.155 2397.74,1061.46C2397.74,1187.93 2336.5,1251.62 2322.87,1264.22ZM2165.35,1793.16C2181.89,1793.22 2198.5,1793.34 2215.17,1793.52L2215.71,1743.52C2198.91,1743.34 2182.19,1743.22 2165.53,1743.16L2165.35,1793.16ZM2055.77,1793.68C2072.31,1793.47 2088.91,1793.31 2105.58,1793.22L2105.3,1743.22C2088.51,1743.31 2071.78,1743.47 2055.11,1743.69L2055.77,1793.68ZM1727.39,1806.6C1743.89,1805.51 1760.45,1804.48 1777.09,1803.51L1774.19,1753.59C1757.42,1754.57 1740.72,1755.61 1724.08,1756.71L1727.39,1806.6ZM2228.23,1479.67C2211.41,1478.43 2194.69,1477.29 2178.07,1476.26L2174.95,1526.16C2191.39,1527.18 2207.92,1528.31 2224.56,1529.54L2228.23,1479.67ZM2117.8,1472.93C2100.97,1472.12 2084.22,1471.41 2067.54,1470.82L2065.75,1520.79C2082.22,1521.38 2098.77,1522.07 2115.4,1522.87L2117.8,1472.93ZM2128.1,1585.45C2114.33,1585.45 2078.93,1589.59 2052.33,1596.47C2041.24,1599.34 2031.68,1602.68 2025.88,1606.41C2073.2,1679.43 2147.93,1699.02 2176.74,1699.02C2185.45,1699.02 2192.97,1697.97 2198.84,1692.93C2203.25,1689.14 2206.72,1683.11 2209.11,1673.63C2211.53,1664.06 2212.82,1650.99 2212.82,1633.19C2212.82,1624.73 2211.36,1617.04 2207.47,1610.44C2202.94,1602.74 2195.09,1596.51 2182.44,1592.2C2169.69,1587.85 2152.09,1585.45 2128.1,1585.45ZM2007.18,1469.12C1990.35,1468.77 1973.58,1468.53 1956.87,1468.4L1956.48,1518.4C1972.99,1518.53 1989.54,1518.76 2006.15,1519.11L2007.18,1469.12ZM1127.25,1547.92C1112.05,1550.71 1096.76,1553.58 1081.36,1556.51L1090.72,1605.62C1106,1602.71 1121.19,1599.87 1136.27,1597.1L1127.25,1547.92ZM1454.87,1497.45C1438.31,1499.44 1421.68,1501.54 1404.99,1503.74L1411.52,1553.31C1428.03,1551.14 1444.47,1549.06 1460.85,1547.09L1454.87,1497.45ZM1946.23,1796.06C1962.76,1795.56 1979.35,1795.12 1996.01,1794.75L1994.89,1744.76C1978.1,1745.13 1961.37,1745.58 1944.71,1746.08L1946.23,1796.06ZM2274.94,1794.43C2291.48,1794.75 2308.08,1795.13 2324.75,1795.58L2326.08,1745.6C2309.3,1745.15 2292.58,1744.76 2275.92,1744.44L2274.94,1794.43ZM1836.76,1800.35C1853.27,1799.55 1869.85,1798.82 1886.5,1798.16L1884.51,1748.2C1867.72,1748.87 1851.01,1749.6 1834.35,1750.4L1836.76,1800.35ZM2338.41,1489.1C2321.61,1487.47 2304.93,1485.94 2288.36,1484.5L2284.04,1534.31C2300.44,1535.74 2316.95,1537.25 2333.57,1538.87L2338.41,1489.1ZM1896.47,1468.42C1879.66,1468.56 1862.89,1468.81 1846.14,1469.17L1847.22,1519.15C1863.74,1518.8 1880.29,1518.55 1896.88,1518.42L1896.47,1468.42ZM2169.9,1062.2C2210.89,1070.85 2241.15,1089.14 2271.41,1114.54C2243.73,1047.64 2181.75,1014.92 2101.53,1026.69C2082.95,1029.42 2063.39,1034.54 2043.05,1042.17C2023.02,1049.68 2002.25,1059.63 1980.9,1072.14C2020.67,1064.11 2054.52,1059.34 2083.9,1057.49C2117.78,1055.35 2145.71,1057.1 2169.9,1062.2ZM1263.01,2226.83C1466.77,2302.85 1690.46,2418.46 1848.17,2535.83C1883.27,2450.89 1916.01,2392.56 1925.94,2375.48C1819.76,2331.97 1684.14,2251.25 1642.24,2210.55C1592.2,2161.94 1564.88,2109.61 1555.11,2062.71C1522.38,2039.25 1471.93,2030.87 1440.69,2022.75C1439.22,2036.44 1427.3,2092.05 1395.15,2131.89C1349.19,2188.84 1294.9,2215.34 1263.01,2226.83ZM1123.77,1169.12C1143.45,1136.2 1169.09,1105.8 1190.26,1077.64C1135.46,1101.12 1110.47,1138.09 1103.15,1185.07C1101.51,1195.62 1100.76,1206.66 1100.76,1218.18C1106.3,1201.23 1114.35,1184.88 1123.77,1169.12ZM2324.8,1050.94C2274.77,818.047 2060.59,836.206 1808.17,941.808C2140.29,871.145 2242.36,907.261 2324.8,1050.94ZM1598.27,1768.19C1587.78,1669.54 1537.35,1601.13 1458.75,1601.13C1403,1601.13 1352.75,1650.59 1352.75,1744.03C1352.75,1935.6 1509,1975.64 1544.33,1975.64C1568.03,1975.64 1582.54,1971.4 1589.53,1968.61C1592.96,1967.24 1594.58,1966.22 1594.58,1966.22C1594.58,1966.22 1593.76,1970.93 1592.43,1979.2C1590.91,1988.59 1588.72,2002.56 1586.3,2019.4C1584.58,2067.7 1609.02,2128.91 1666.92,2185.15C1711.91,2228.85 1870.04,2320.17 1974.48,2356.01C1975.38,2356.32 1976.25,2356.69 1977.07,2357.13C2003.1,2365.11 2092.41,2391.55 2132.99,2391.55C2212.89,2391.55 2238.71,2328.36 2240.49,2311.93C2245.03,2270.14 2237.2,2236.86 2237.51,2228.71L2240.24,2215.43L2248.01,2203.46C2275.31,2175.55 2269.53,2153.95 2269.21,2152.85C2267.82,2150.93 2266.64,2148.91 2265.68,2146.8C2162.69,2140.28 2090.01,2108.24 2019.57,2053.82C2019.57,2047.81 2020.68,2040.26 2031.13,2038.66C2059.42,2061.22 2200.08,2111.53 2283.38,2099.72C2285.87,2098.61 2288.51,2097.77 2291.24,2097.25C2292.64,2094.45 2295.73,2088.05 2296.95,2083.6C2304.05,2057.66 2302.72,2025.9 2302.72,2025.9C2302.63,2023.49 2302.78,2021.09 2303.18,2018.75C2281.88,2012.8 2254.13,2001.4 2236.14,1980.09C2221.58,1962.83 2259.76,1964.51 2280.87,1972.55C2301.97,1980.59 2318.55,1988.63 2346.19,1988.63C2347.57,1988.63 2348.78,1988.72 2349.84,1988.89C2378.93,1987.54 2398.63,1980.92 2410.78,1969.18C2421.77,1958.54 2424.69,1944.1 2424.4,1930.11C2424.22,1921.58 2420,1909.59 2414.51,1895.23C2409.24,1881.43 2402.54,1866.09 2395.11,1849.98C2144.32,1835.33 1855.53,1836.88 1596.81,1856.58C1600.12,1824.89 1600.42,1795.38 1598.27,1768.19ZM1408.83,1766.14C1399.58,1704.16 1437.42,1663.7 1483.65,1663.7C1522.39,1663.7 1556.96,1714.18 1556.96,1766.59C1538.82,1766.39 1521.65,1788.27 1521.11,1812.44C1520.71,1830.58 1533.02,1855.43 1553.82,1862.06C1513.87,1863.88 1463.21,1845.73 1463.21,1796.5C1463.21,1771.88 1490.43,1751.63 1505.2,1751.63C1505.2,1724.3 1491.01,1707.55 1469.03,1707.55C1438.2,1707.55 1416.21,1728.18 1408.83,1766.14ZM2070.22,2002.66C2028.81,2011.1 1995.04,2025.57 1982.18,2098.33C1950.02,1964.47 2059.5,1979.58 2070.22,2002.66ZM1875.63,1004.57C1883.25,1003.25 1891.11,1001.96 1899.2,1000.69C1883.42,1000.75 1868.35,1001.07 1853.98,1001.65C1662.8,1009.31 1593.51,1062.3 1573.61,1149.67C1632.44,1091.49 1673.25,1039.46 1875.63,1004.57ZM1511.65,995.135C1578.81,895.794 1633.05,887.459 1742.22,881.352C1614.58,839.655 1519.08,896.625 1506.64,996.581C1506.34,998.974 1506.09,1001.39 1505.89,1003.83C1507.82,1000.86 1509.74,997.96 1511.65,995.135ZM1744.22,1472.74C1741.31,1472.88 1738.4,1473.02 1735.49,1473.17L1738.03,1523.1C1754.56,1522.26 1771.1,1521.53 1787.65,1520.91L1785.77,1470.95C1771.92,1471.47 1758.07,1472.06 1744.22,1472.74ZM2333.15,1426.59C2315.08,1353.11 2289.72,1276.93 2289.72,1276.93C2289.63,1276.65 2289.54,1276.37 2289.46,1276.08C2289.04,1274.69 2288.62,1273.3 2288.19,1271.92C2071.64,1081.2 1899.77,1242.05 1926.26,1353.93C1859.33,1310.35 1868.55,1220.65 1919.78,1165.49C1799.07,1203.77 1835.59,1318.08 1829.49,1356.87C1826.37,1376.76 1821.7,1393.67 1817.27,1406.71C1989.7,1400.48 2162.91,1406.46 2333.15,1426.59ZM1621.38,1764.43C1618.9,1764.64 1616.41,1764.85 1613.93,1765.06L1618.18,1814.88C1634.65,1813.47 1651.19,1812.13 1667.8,1810.86L1663.98,1761.01C1649.73,1762.1 1635.53,1763.24 1621.38,1764.43ZM1345.25,1511.99C1328.77,1514.37 1312.21,1516.84 1295.55,1519.41L1303.17,1568.82C1319.67,1566.28 1336.07,1563.83 1352.39,1561.48L1345.25,1511.99ZM1564.87,1485.6C1548.23,1487.17 1531.55,1488.85 1514.82,1490.63L1520.12,1540.35C1536.65,1538.59 1553.13,1536.93 1569.57,1535.38L1564.87,1485.6ZM1291.84,1852.32C1308.2,1849.94 1324.63,1847.64 1341.12,1845.4L1334.4,1795.86C1317.76,1798.11 1301.18,1800.44 1284.66,1802.83L1291.84,1852.32ZM1183.64,1869.12C1199.96,1866.42 1216.34,1863.78 1232.78,1861.21L1225.06,1811.81C1208.46,1814.4 1191.93,1817.07 1175.46,1819.8L1183.64,1869.12ZM1236.04,1528.92C1219.64,1531.63 1203.14,1534.43 1186.54,1537.32L1195.11,1586.58C1211.57,1583.72 1227.93,1580.94 1244.19,1578.25L1236.04,1528.92ZM1675.2,1476.71C1658.49,1477.82 1641.77,1479.04 1625.02,1480.37L1628.98,1530.21C1645.51,1528.9 1662.02,1527.69 1678.52,1526.6L1675.2,1476.71ZM1364.27,1046.67C1322.43,1047.08 1286.48,1064.4 1259.92,1093.59C1245.54,1109.39 1233.9,1128.68 1225.57,1150.65C1221.71,1160.83 1218.56,1171.59 1216.17,1182.85C1227.38,1165.69 1237.74,1151.23 1247.79,1138.98C1293.89,1082.74 1333.6,1072.91 1420.61,1061.97C1424.84,1061.44 1429.19,1060.91 1433.66,1060.36C1432.22,1059.8 1430.78,1059.25 1429.35,1058.72C1406.52,1050.29 1384.69,1046.46 1364.27,1046.67Z"/>
            </g>
        </g>
    </g>
</svg>
