<?xml version="1.0" encoding="UTF-8" standalone="no"?>
<!DOCTYPE svg PUBLIC "-//W3C//DTD SVG 1.1//EN" "http://www.w3.org/Graphics/SVG/1.1/DTD/svg11.dtd">
<svg width="100%" height="100%" viewBox="0 0 512 512" version="1.1" xmlns="http://www.w3.org/2000/svg" xmlns:xlink="http://www.w3.org/1999/xlink" xml:space="preserve" xmlns:serif="http://www.serif.com/" style="fill-rule:evenodd;clip-rule:evenodd;stroke-linejoin:round;stroke-miterlimit:2;">
    <g transform="matrix(0.1,0,0,-0.1,0,512)">
        <path d="M2075,5114C1514,5055 1065,4850 686,4481C381,4183 180,3840 76,3440C20,3224 5,3106 6,2860C6,2624 18,2516 71,2306C136,2047 268,1761 414,1563L460,1500L299,1500C152,1500 134,1498 99,1478C58,1455 20,1394 20,1350C20,1306 58,1245 99,1222C120,1210 145,1200 154,1200C168,1200 170,1157 170,750C170,343 168,300 154,300C145,300 120,290 99,278C58,255 20,194 20,150C20,106 58,45 99,22L138,0L2423,0C4059,0 4724,3 4762,11C4839,27 4942,85 4994,140C5047,196 5093,284 5109,358C5124,432 5124,1668 5109,1742C5072,1914 4934,2052 4762,2089C4733,2095 4635,2100 4543,2100C4390,2100 4378,2101 4385,2118C4404,2167 4453,2357 4470,2450C4587,3070 4437,3711 4056,4220C3967,4339 3782,4531 3670,4620C3411,4826 3118,4973 2814,5049C2749,5066 2648,5086 2590,5095C2489,5110 2158,5123 2075,5114ZM2565,4795C2935,4730 3241,4587 3525,4348C3844,4080 4085,3671 4169,3255C4242,2893 4210,2505 4079,2160C4006,1968 3873,1749 3730,1583L3659,1500L2764,1500L2795,1565C2836,1649 2851,1720 2851,1824C2851,1927 2838,1983 2794,2075C2646,2389 2264,2512 1961,2344C1863,2289 1770,2190 1722,2088C1672,1984 1656,1917 1657,1815C1657,1724 1678,1633 1715,1560C1729,1533 1740,1508 1740,1505C1740,1502 1539,1501 1293,1502L845,1505L763,1603C286,2175 167,2952 455,3624C734,4274 1316,4713 2020,4806C2152,4823 2440,4817 2565,4795ZM2347,2105C2408,2087 2491,2017 2523,1956C2553,1901 2555,1743 2527,1692C2497,1637 2439,1580 2386,1552C2343,1530 2322,1526 2255,1526C2188,1526 2167,1530 2125,1552C2017,1609 1959,1702 1959,1819C1959,1913 1986,1976 2057,2040C2140,2116 2238,2137 2347,2105ZM4740,1780C4785,1757 4820,1700 4820,1650C4820,1600 4785,1543 4740,1520C4703,1501 4682,1500 4375,1500L4050,1500L4099,1568C4126,1606 4170,1674 4196,1718L4245,1800L4473,1800C4682,1800 4704,1798 4740,1780ZM4820,820C4820,438 4819,417 4800,380C4787,354 4766,333 4740,320C4703,301 4682,300 4385,300L4070,300L4070,1200L4393,1201C4570,1201 4733,1205 4755,1209C4777,1214 4801,1218 4808,1219C4817,1220 4820,1134 4820,820ZM1370,1200L1370,300L470,300L470,1200L1370,1200ZM2570,1200L2570,300L1670,300L1670,1200L2570,1200ZM3770,1200L3770,300L2870,300L2870,1200L3770,1200Z" style="fill:rgb(225,29,72);fill-rule:nonzero;"/>
        <path d="M2160,4504C1970,4467 1802,4342 1723,4179C1700,4133 1677,4073 1670,4045C1655,3981 1655,3839 1670,3775C1689,3697 1754,3570 1805,3513C1867,3443 1980,3369 2071,3339C2177,3305 2333,3305 2440,3340C2587,3388 2721,3505 2791,3645C2834,3734 2850,3803 2850,3912C2850,4236 2600,4495 2275,4506C2226,4507 2174,4506 2160,4504ZM2387,4176C2439,4150 2497,4093 2527,4038C2541,4013 2545,3983 2545,3910C2545,3796 2528,3757 2450,3686C2334,3583 2173,3584 2057,3690C1986,3754 1959,3817 1959,3911C1959,4047 2042,4156 2180,4201C2225,4216 2334,4203 2387,4176Z" style="fill:rgb(225,29,72);fill-rule:nonzero;"/>
        <path d="M1056,3445C866,3393 711,3246 644,3056C619,2985 615,2961 615,2865C615,2784 620,2740 634,2700C700,2504 832,2365 1016,2298C1090,2271 1257,2262 1339,2280C1652,2349 1857,2660 1799,2976C1758,3198 1582,3388 1363,3444C1289,3463 1125,3464 1056,3445ZM1335,3136C1435,3090 1510,2973 1510,2865C1510,2754 1431,2634 1328,2590C1284,2571 1263,2568 1195,2572C1075,2579 996,2630 939,2740C904,2807 905,2926 942,2995C975,3058 1032,3113 1090,3139C1156,3169 1268,3168 1335,3136Z" style="fill:rgb(225,29,72);fill-rule:nonzero;"/>
        <path d="M3145,3445C3069,3424 2960,3366 2903,3315C2833,3254 2759,3140 2729,3049C2710,2989 2705,2955 2705,2865C2705,2775 2710,2741 2729,2681C2759,2590 2833,2477 2903,2415C2964,2361 3091,2297 3171,2280C3253,2262 3421,2271 3494,2298C3642,2352 3764,2460 3831,2594C3921,2778 3921,2953 3830,3138C3757,3286 3613,3402 3450,3445C3381,3463 3213,3463 3145,3445ZM3428,3136C3482,3108 3540,3050 3568,2996C3590,2953 3594,2932 3594,2865C3594,2798 3590,2777 3568,2734C3540,2680 3482,2622 3428,2594C3408,2583 3364,2575 3315,2572C3209,2566 3150,2590 3080,2667C3004,2750 2982,2847 3015,2957C3035,3023 3108,3105 3175,3137C3218,3158 3236,3161 3310,3157C3365,3155 3407,3148 3428,3136Z" style="fill:rgb(225,29,72);fill-rule:nonzero;"/>
    </g>
</svg>
