<?xml version="1.0" encoding="UTF-8" standalone="no"?>
<!DOCTYPE svg PUBLIC "-//W3C//DTD SVG 1.1//EN" "http://www.w3.org/Graphics/SVG/1.1/DTD/svg11.dtd">
<svg width="100%" height="100%" viewBox="0 0 463 680" version="1.1" xmlns="http://www.w3.org/2000/svg" xmlns:xlink="http://www.w3.org/1999/xlink" xml:space="preserve" xmlns:serif="http://www.serif.com/" style="fill-rule:evenodd;clip-rule:evenodd;stroke-linejoin:round;stroke-miterlimit:2;">
    <g transform="matrix(1,0,0,1,-1896.04,-3730.66)">
        <path d="M1896.05,4148.53L1896.05,3932.53C1896.05,3919.69 1901.58,3907.48 1911.22,3899.02L2090.41,3741.76C2098.56,3734.61 2109.03,3730.66 2119.88,3730.66L2347.97,3730.66C2351.77,3730.66 2355.17,3733.01 2356.51,3736.57C2357.85,3740.12 2356.84,3744.13 2353.99,3746.64L1896.05,4148.53Z" style="fill:rgb(225,29,72);"/>
        <path d="M1896.05,4207.53C1896.05,4194.7 1901.58,4182.48 1911.22,4174.02L2007.6,4089.43L2355.22,4394.5C2357.95,4396.89 2358.91,4400.73 2357.63,4404.13C2356.35,4407.53 2353.09,4409.78 2349.46,4409.78L2120.11,4409.78C2109.39,4409.78 2099.05,4405.88 2091,4398.82L1911.22,4241.04C1901.63,4232.62 1896.1,4220.5 1896.05,4207.74C1896.05,4207.67 1896.05,4207.6 1896.05,4207.53Z" style="fill:rgb(136,19,55);"/>
    </g>
</svg>
